<mxfile host="app.diagrams.net" modified="2024-01-11T07:48:23.707Z" agent="Mozilla/5.0 (Windows NT 10.0; Win64; x64) AppleWebKit/537.36 (KHTML, like Gecko) Chrome/120.0.0.0 Safari/537.36" version="22.1.17" etag="6DEtEFqG80Lz_VCUqCME" type="github">
  <diagram name="Страница — 1" id="ToRmgPAVrmv3WuliKV6g">
    <mxGraphModel>
      <root>
        <mxCell id="0" />
        <mxCell id="1" parent="0" />
      </root>
    </mxGraphModel>
  </diagram>
</mxfile>
